<svg width="228" height="161" viewBox="0 0 228 161" fill="none" xmlns="http://www.w3.org/2000/svg">
<g id="Glutes">
<path id="Right_gluteus_maximum" d="M170.6 161C148.6 161 133.1 152.667 128.1 148.5C124.6 145 120.868 143.161 118.6 138.5C113 126.989 114.5 116.489 114 103.489C113.602 93.1476 118.774 72.062 120.963 63.1397L121 62.9889C124.667 51.9889 133 30.4889 145 16.4889C160 -1.01111 170 0.98891 177.5 0.48891C185 -0.0110901 190.6 13.5 193.6 19.5C196 24.3 205.267 54.1667 209.6 68.5C211.267 74.5 214.8 90.1 215.6 104.5C216.6 122.5 213 139.989 208.5 144.489C204 148.989 198.1 161 170.6 161Z" fill="#60DAAC" fill-opacity="0.3"/>
<path id="Left_gluteus_maximus" d="M54.2409 160.511C76.2409 160.511 93 154.656 98 150.489C101.5 146.989 105.429 143.489 108 138.989C116 124.989 113.5 115.999 113.5 102.989C113.5 92.9889 109.767 72.3333 107.6 63.5C104.779 52 96.5 31.9889 84.5 18.9889C68.8664 2.05253 61.1001 0 50.1 0C42.5834 2.44385e-07 37 17.4889 34 23.4889C31.6 28.2889 21.8333 54.1556 17.5 68.4889C15.8333 74.4889 12.8 90.0889 12 104.489C11 122.489 15.6489 137.079 19 142.489C22.3999 147.978 26.7409 160.511 54.2409 160.511Z" fill="#60DAAC" fill-opacity="0.3"/>
<path id="right_gluteus_medius" d="M227.5 113.489C225.5 108.689 215.5 87.489 213 79.989C211 72.489 207 55.489 204.5 48.989C202.105 42.7628 195 22.489 191 12.989C187 3.48898 181 1.48889 187 2.48889C193 3.48889 210.5 14.989 216 25.489C221.5 35.989 225.541 63.9021 226 68.489C226.5 73.489 227.802 114.215 227.5 113.489Z" fill="#60DAAC" fill-opacity="0.3"/>
<path id="left_gluteus_medius" d="M0 108.489V89.4889C0 87.9889 0.5 67.4889 1 64.9889C1.5 62.4889 5.5 35.4889 7.5 30.9889C9.5 26.4889 20.5 14.9889 27 9.98889C33.5 4.98889 49.5 -1.01111 47 0.488895C44.5 1.98889 43.5 5.48889 39 13.4889C34.5 21.4889 31.5 29.9889 27 40.9889C22.5 51.9889 17.5 71.4889 16 76.4889C14.8 80.4889 4.83333 99.4889 0 108.489Z" fill="#60DAAC" fill-opacity="0.3"/>
</g>
</svg>
