<svg width="102" height="161" viewBox="0 0 102 161" fill="none" xmlns="http://www.w3.org/2000/svg">
<path id="Left_gluteus_maximus" d="M42.3789 160.511C64.3789 160.511 81.138 154.656 86.138 150.489C89.638 146.989 93.5665 143.489 96.138 138.989C104.138 124.989 101.638 115.999 101.638 102.989C101.638 92.9889 97.9047 72.3333 95.7381 63.5C92.9173 52 84.638 31.9889 72.638 18.9889C57.0044 2.05253 49.2381 0 38.238 0C30.7214 2.44385e-07 25.138 17.4889 22.138 23.4889C19.738 28.2889 9.97134 54.1556 5.638 68.4889C3.97134 74.4889 0.938004 90.0889 0.138 104.489C-0.862 122.489 3.78688 137.079 7.138 142.489C10.5379 147.978 14.8789 160.511 42.3789 160.511Z" fill="#60DAAC" fill-opacity="0.3"/>
</svg>
