<svg width="102" height="161" viewBox="0 0 102 161" fill="none" xmlns="http://www.w3.org/2000/svg">
<path id="Right_gluteus_maximum" d="M56.6218 160.525C34.6218 160.525 19.1218 152.191 14.1218 148.025C10.6218 144.525 6.88921 142.685 4.62183 138.025C-0.978333 126.513 0.521708 116.013 0.0217081 103.013C-0.376034 92.6722 4.79614 71.5865 6.98472 62.6642L7.0217 62.5135C10.6884 51.5135 19.0217 30.0135 31.0217 16.0135C46.0217 -1.48651 56.0217 0.513507 63.5217 0.0135071C71.0217 -0.486493 76.6218 13.0246 79.6218 19.0246C82.0218 23.8246 91.2885 53.6913 95.6218 68.0246C97.2885 74.0246 100.822 89.6246 101.622 104.025C102.622 122.025 99.0217 139.513 94.5217 144.013C90.0217 148.513 84.1218 160.525 56.6218 160.525Z" fill="#60DAAC" fill-opacity="0.3"/>
</svg>
