<svg width="96" height="167" viewBox="0 0 96 167" fill="none" xmlns="http://www.w3.org/2000/svg">
<path id="left_lat" d="M57.7761 166.551C56.9761 167.351 47.7761 152.218 43.2761 144.551C42.6874 143.551 41.2761 139.051 37.7761 133.051C34.2761 127.051 31.9124 117.551 27.2761 111.551C18.7761 100.551 14.7761 80.0511 12.7761 73.5511C10.7761 67.0511 2.27608 16.0511 1.77608 14.5511C1.27608 13.0511 -0.723877 -0.948944 0.276123 0.0510559C1.27612 1.05106 7.77608 9.55109 18.7761 13.0511C29.7761 16.5511 48.2761 14.5511 54.7761 12.0511C61.2761 9.5511 70.5068 4.5511 70.7761 5.0511C74.2761 11.5511 78.7761 26.0511 84.7761 39.0511C90.7761 52.0511 95.2761 61.5511 95.2761 73.5511C95.2761 85.5511 89.7761 101.551 86.7761 113.051C83.7761 124.551 72.7761 143.551 72.7761 145.551C72.7761 147.551 58.7761 165.551 57.7761 166.551Z" fill="#60DAAC" fill-opacity="0.3"/>
</svg>
