<svg width="96" height="172" viewBox="0 0 96 172" fill="none" xmlns="http://www.w3.org/2000/svg">
<path id="right_lat" d="M36.6875 172.001C29.0875 164.801 22.1875 151.668 19.6875 146.001C19.0208 144.168 16.0875 137.201 9.6875 124.001C1.6875 107.501 1.1875 82.0013 0.1875 75.0013C-0.8125 68.0013 2.1875 60.5013 9.1875 47.0013C16.1875 33.5013 26.647 -0.241545 26.6875 0.00131226C27.1875 3.0013 34.6875 12.0013 40.6875 17.0013C46.6875 22.0013 58.1875 22.0013 70.6875 20.5013C80.6875 19.3013 91.1875 10.3346 95.1875 6.00128C95.1875 6.00128 94.6875 7.00129 92.6875 22.5013C87.6864 61.26 82.6875 74.0013 80.6875 86.0013C78.6875 98.0013 57.6875 138.001 53.6875 144.501C49.5441 151.234 37.2153 172.501 36.6875 172.001Z" fill="#60DAAC" fill-opacity="0.3"/>
</svg>
