<svg width="348" height="102" viewBox="0 0 348 102" fill="none" xmlns="http://www.w3.org/2000/svg">
<g id="Side_delt">
<path id="side_delt_right_arm" d="M329.602 88.6357C329.102 73.1357 328.102 65.1357 326.102 56.6357C325.986 56.1397 325.563 53.057 320.602 43.1357C312.602 27.1357 304.102 21.1357 302.102 19.1357C300.102 17.1357 287.102 8.13567 273.602 9.13567C262.802 9.93567 249.102 18.469 243.602 22.6357C246.602 19.6357 254.502 12.3357 262.102 7.13567C271.602 0.635669 285.602 -0.864331 294.602 0.635669C303.602 2.13567 316.602 4.63567 330.602 22.6357C344.602 40.6357 345.102 54.1357 346.102 59.1357C349.002 73.6357 344.102 101.636 343.602 101.136C340.343 97.8761 329.635 89.6351 329.602 88.6357Z" fill="#60DAAC" fill-opacity="0.3"/>
<path id="side_delt_left_arm" d="M4.6024 99.6357C4.6024 99.6357 1.26906 90.3023 0.602398 86.6357C0.102385 83.6357 -0.157621 81.6357 0.102397 75.1357C0.602433 62.6357 2.6024 53.1357 3.1024 51.1357C3.6024 49.1357 5.6024 36.1357 17.6024 21.6357C29.6024 7.13567 44.6024 3.13567 48.1024 1.63567C51.6024 0.135665 70.1024 -2.36433 85.1024 5.13567C100.102 12.6357 107.602 23.6357 107.102 23.1357C106.602 22.6357 99.1024 18.6357 97.6024 17.6357C96.1024 16.6357 87.1024 10.6357 80.1024 9.63566C73.1024 8.63566 67.6024 9.13566 61.1024 11.1357C54.6024 13.1357 50.6024 15.6357 42.1024 22.6357C33.6024 29.6357 32.6024 34.6357 27.6024 41.6357C22.6024 48.6357 20.6024 64.6357 20.6024 70.1357C20.6024 75.6583 21.1024 86.1357 21.1024 86.1357L4.6024 99.6357Z" fill="#60DAAC" fill-opacity="0.3"/>
</g>
</svg>
