<svg width="46" height="152" viewBox="0 0 46 152" fill="none" xmlns="http://www.w3.org/2000/svg">
<path id="inner_tricep_left_arm" d="M0.116019 151.221C1.71602 146.821 3.78269 137.388 4.61602 133.221C4.78269 132.221 5.51603 128.921 7.11603 123.721C9.11603 117.221 10.616 102.221 9.61603 94.721C8.61603 87.221 6.11603 81.221 5.11603 78.721C4.11603 76.221 0.419605 58.721 2.11603 49.221C4.61603 35.221 5.11603 33.721 8.61603 24.221C12.116 14.721 14.616 9.0392 15.616 8.72102C26.616 5.22104 36.256 -1.27902 36.616 0.22102C39.616 12.721 45.616 38.221 45.616 54.221C45.616 70.221 40.9308 75.721 41.116 80.721C41.3568 87.221 41.116 87.221 38.616 99.221C36.116 111.221 25.616 127.721 24.116 129.721C22.616 131.721 -1.88398 156.721 0.116019 151.221Z" fill="#60DAAC" fill-opacity="0.3"/>
</svg>
