<svg width="45" height="148" viewBox="0 0 45 148" fill="none" xmlns="http://www.w3.org/2000/svg">
<path id="inner_tricep_right_arm" d="M30.1068 138.511C24.157 134.545 17.7156 124.678 15.1704 120.126C15.0352 119.898 14.206 118.479 11.6068 114.011C7.23717 106.501 4.1068 89.5114 3.1068 86.5114C2.1068 83.5114 -1.3932 68.5114 0.606799 47.0114C2.6068 25.5114 2.25387 35.5114 3.60681 24.0114C4.60681 15.5114 6.6068 -0.488551 8.6068 0.0114485C10.6068 0.511449 13.6068 2.51145 20.1068 4.51145C26.6068 6.51145 35.6068 16.0114 39.1068 28.0114C42.6068 40.0114 43.6068 43.5114 44.1068 55.0114C44.6068 66.5114 39.1068 70.5115 37.1068 88.0115C35.1068 105.511 39.1068 118.511 39.1068 121.011C39.1068 123.511 43.1068 148.011 42.6068 147.011C42.1068 146.011 37.6068 143.511 30.1068 138.511Z" fill="#60DAAC" fill-opacity="0.3"/>
</svg>
