<svg width="47" height="96" viewBox="0 0 47 96" fill="none" xmlns="http://www.w3.org/2000/svg">
<path id="outside_tricep_left_arm" d="M13.4984 77.4757C9.80204 82.2282 5.49844 96.309 4.49844 94.9757C0.983905 90.2896 0.0426957 76.0092 -1.07355e-05 68.9756C0.166141 66.6423 0.598444 61.1756 0.998444 57.9757C1.49844 53.9757 2.99844 45.4756 7.99844 33.9756C12.9984 22.4756 22.9984 12.9757 27.4984 9.47565C31.9984 5.97565 49.4984 -2.02435 45.9984 0.475653C42.4984 2.97565 40.9984 7.47565 40.4984 8.47565C39.9984 9.47565 30.466 27.4478 29.9984 41.4757C29.4984 56.4756 29.4984 50.9756 25.4984 57.9757C23.4984 61.4757 16.9984 72.9756 13.4984 77.4757Z" fill="#60DAAC" fill-opacity="0.3"/>
</svg>
