<svg width="49" height="130" viewBox="0 0 49 130" fill="none" xmlns="http://www.w3.org/2000/svg">
<path id="outside_tricep_right_arm" d="M43 124.5C40.7324 120.815 40.3333 111 40.5 106.5V102C40.5 100 40.5 100 38.5 90.5C36.5 81 32 73.5 30.5 71.5C29 69.5 25 63 22 55.5C19 48 20 50.5 17.5 36.5C15 22.5 12.5 21 10.5 14.5C8.9 9.3 2.83333 2.66667 0 0C3 0.666667 9.95195 2.58896 14.5 6C20.5 10.5 32 18.5 37 30C47.0812 53.1866 46.4939 63.4328 47 69C47.5 74.5 47 97 47 100C47 103 48.5 120 48 124C47.0625 131.5 47 131 43 124.5Z" fill="#60DAAC" fill-opacity="0.3"/>
</svg>
