<svg width="119" height="234" viewBox="0 0 119 234" fill="none" xmlns="http://www.w3.org/2000/svg">
<path id="Lower_back" d="M46.1105 181.359C41.3105 165.759 26.1105 151.192 19.1105 145.859C18.1105 143.859 19.1105 141.859 17.6105 133.859C16.1104 125.859 13.1462 121.859 9.61047 116.359C5.11041 109.359 -0.889558 104.859 0.110467 103.859C4.61047 97.8588 16.1105 81.3588 22.6105 68.3588C29.1105 55.3588 32.1105 34.8588 35.1105 27.3588C38.1105 19.8588 35.6104 0.43018 37.6105 1.8588C41.1105 4.3588 44.1105 16.3588 44.6105 17.3588C45.1105 18.3588 58.6105 57.3588 60.6105 52.8588C62.6105 48.3588 68.1105 37.3588 72.1105 23.8588C76.1105 10.3588 82.6105 -3.6412 82.1105 0.858799C82.6104 5.3588 82.6105 11.3588 84.6105 27.3588C86.6105 43.3588 95.6105 62.3588 98.1105 69.8588C99.6104 77.8588 119.61 102.859 118.11 104.359C108.83 113.639 105.61 126.359 104.11 130.359C102.61 134.359 104.11 142.359 102.61 143.359C101.11 144.359 96.6105 146.859 89.6105 154.859C82.6105 162.859 79.6105 168.359 73.1105 181.359C67.9105 191.759 63.6105 211.692 62.1105 220.359L59.6105 231.859C59.7771 234.192 59.5105 235.159 57.1105 220.359C54.1105 201.859 52.1105 200.859 46.1105 181.359Z" fill="#60DAAC" fill-opacity="0.3"/>
</svg>
