<svg width="86" height="78" viewBox="0 0 86 78" fill="none" xmlns="http://www.w3.org/2000/svg">
<path id="rear_delt_left_arm" d="M0.447158 77.0237C-0.0526564 65.0237 -0.552904 56.0237 1.44716 47.0237C1.73537 45.0237 2.94734 39.0237 6.44715 33.5237C9.44826 28.8074 13.8157 20.8077 15.9473 18.5237C22.9473 11.0237 30.4476 6.02371 37.4474 3.02372C42.1139 1.02372 50.9474 -0.976288 60.4472 0.523719C64.9474 1.2343 71.4474 5.02371 85.9474 13.5237C86.23 13.6894 81.7201 18.0237 80.9474 18.5237C72.4474 24.0237 67.9472 35.0237 55.4472 47.0237C42.9472 59.0237 31.9472 63.5237 23.9472 67.0237C15.9472 70.5237 0.489521 78.0408 0.447158 77.0237Z" fill="#60DAAC" fill-opacity="0.3"/>
</svg>
