<svg width="63" height="299" viewBox="0 0 63 299" fill="none" xmlns="http://www.w3.org/2000/svg">
<path id="vastus_intermedius_right_leg" d="M16.2761 297.013C17.9659 294.479 20.1095 283.68 20.7761 279.513C21.1082 277.513 20.7761 269.013 20.7761 261.513C20.7761 254.013 19.2761 248.513 17.2761 242.013C15.2761 235.513 15.2761 233.513 9.77614 219.513C4.27614 205.513 2.27614 189.013 1.77614 184.513C1.27614 180.013 -0.723858 147.013 0.276142 130.013C1.27614 113.013 3.77614 96.0134 6.27614 81.0134C8.77614 66.0134 14.8274 53.8683 17.7761 45.5134C20.7761 37.0134 27.7761 22.0134 29.2761 17.5134C30.7761 13.0134 30.2761 2.0134 30.2761 0.0134047C30.2761 -0.234025 34.3671 3.01343 34.7761 4.01341C39.2756 15.0136 41.7761 26.5134 42.2761 29.5134C42.7761 32.5134 52.2761 74.0134 54.2761 85.0134C56.2761 96.0134 61.7761 114.013 62.2761 125.013C62.7761 136.013 59.2761 156.013 57.7761 163.013C56.2761 170.013 53.7761 182.013 49.7761 193.513C45.7761 205.013 39.2761 221.513 36.7761 233.513C34.2761 245.513 35.2761 269.513 35.7761 277.013C36.2761 284.513 41.7761 298.263 41.2761 298.013C38.2761 296.513 30.2761 296.513 26.7761 296.513C23.2761 296.513 15.2761 298.513 16.2761 297.013Z" fill="#60DAAC" fill-opacity="0.3"/>
</svg>
