<svg width="50" height="199" viewBox="0 0 50 199" fill="none" xmlns="http://www.w3.org/2000/svg">
<path id="vastus_medialis_left_leg" d="M41.7222 184.507C39.8889 187.34 34.6222 193.807 28.2222 197.007C22.2076 200.014 16.3108 196.191 13.6857 193.507C9.14925 187.507 9.22223 187.507 5.22223 179.507C1.22223 171.507 0.722222 160.007 0.222222 156.507C-0.277778 153.007 0.222222 140.007 0.222222 127.507C0.222222 115.007 1.72222 109.507 2.22222 99.5067C2.72222 89.5067 9.72222 58.0067 10.2222 57.5067C10.7222 57.0067 16.7222 29.0067 16.7222 28.0067C16.7222 27.0067 23.7222 -0.493264 24.7222 0.00673574C25.7222 0.506736 24.2222 11.0067 23.7222 21.5067C23.2222 32.0067 26.7222 51.5067 27.7222 53.5067C28.7222 55.5067 40.7222 92.5067 43.2222 100.507C45.7222 108.507 46.2222 112.507 48.7222 126.007C51.2222 139.507 48.2222 149.007 48.2222 160.007C48.2222 168.807 43.8889 180.007 41.7222 184.507Z" fill="#60DAAC" fill-opacity="0.3"/>
</svg>
