<svg width="38" height="245" viewBox="0 0 38 245" fill="none" xmlns="http://www.w3.org/2000/svg">
<path id="vastus_lateralis_right_leg" d="M32.2102 243.2C27.7925 248.354 23.4324 239.7 20.7102 236.2C17.2102 231.7 11.2102 212.7 9.71024 207.2C7.33854 198.503 4.21025 177.2 2.71024 170.2C2.06738 167.2 -0.789759 128.7 0.210241 113.2C1.21024 97.6997 6.11573 62.1316 7.21024 55.1997C9.42075 41.1996 32.2102 -6.30035 29.7102 0.699647C27.2102 7.69965 23.2102 23.6997 21.2102 33.6997C19.2102 43.6997 17.7102 69.1997 17.2102 75.1997C16.7103 81.1997 17.7102 106.182 17.7102 113.2C17.7102 126.2 22.7102 151.2 23.7102 153.7C24.7102 156.2 30.2102 174.7 33.7102 182.7C37.2102 190.7 37.7102 208.2 37.7102 213.7C37.7102 224.2 35.2102 239.7 32.2102 243.2Z" fill="#60DAAC" fill-opacity="0.3"/>
</svg>
