<svg width="61" height="303" viewBox="0 0 61 303" fill="none" xmlns="http://www.w3.org/2000/svg">
<path id="vastus_intermedius_left_leg" d="M19.6204 297.407C20.4204 297.007 22.287 290.907 23.1204 287.907C23.1204 287.407 23.5204 283.607 25.1204 272.407C27.1204 258.407 27.1204 254.407 25.1204 238.907C23.9326 229.701 21.6761 222.103 18.6204 212.406C15.3117 201.906 10.6204 191.406 7.62043 181.906C-0.880795 154.986 -0.570269 130.374 0.620452 121.906C5.12046 89.9065 16.6204 45.4065 19.1204 32.4065C21.6204 19.4065 27.6204 3.90647 28.6204 1.40653C29.0032 0.449494 32.1204 -0.593541 32.1204 0.406533V0.406556C32.1204 2.40659 32.1204 9.40656 33.1204 16.4065C34.1204 23.4065 42.1204 40.4065 46.6204 51.4065C51.1204 62.4065 57.1204 92.9065 58.1204 102.407C59.1204 111.907 60.6204 141.407 60.1204 161.407C59.6204 181.407 51.6204 212.407 50.1204 217.907C48.6204 223.407 40.6204 239.407 38.6204 251.907C36.6204 264.407 39.1204 279.407 39.6204 283.407C40.1819 287.899 44.3981 303.907 42.6204 301.907C38.6204 297.407 33.1204 297.407 29.1204 296.907C25.1204 296.407 18.6204 297.907 19.6204 297.407Z" fill="#60DAAC" fill-opacity="0.3"/>
</svg>
