<svg width="49" height="187" viewBox="0 0 49 187" fill="none" xmlns="http://www.w3.org/2000/svg">
<path id="vastus_medialis_right_leg" d="M28.1689 185.231C21.3689 188.831 15.0023 183.064 12.6689 179.731C6.66892 172.731 6.16892 168.231 3.16892 158.231C0.168918 148.231 -0.331082 127.231 0.168918 117.231C0.668918 107.231 6.16892 88.731 9.66892 81.231C13.1689 73.731 19.6689 47.231 23.1689 35.731C26.6689 24.231 27.6689 -2.76896 28.1689 0.231038C28.6689 3.23104 33.1689 22.731 36.1689 36.731C39.1689 50.731 41.6689 68.231 44.6689 82.231C47.6689 96.231 48.1689 118.231 48.1689 122.231C48.1689 126.231 47.5858 156.536 46.1689 161.731C44.6689 167.231 36.6689 180.731 28.1689 185.231Z" fill="#60DAAC" fill-opacity="0.3"/>
</svg>
