<svg width="41" height="235" viewBox="0 0 41 235" fill="none" xmlns="http://www.w3.org/2000/svg">
<path id="vastus_lateralis_left_leg" d="M12.0555 234.5C8.56303 235.373 5.55555 230.167 4.55555 228C3.55555 226.667 1.35555 220.9 0.555551 208.5C-0.444449 193 -0.44443 181.5 3.55555 172.5C15.9627 144.584 18.5556 122 19.0556 118.5C19.5556 115 23.5556 89 22.0556 61C20.8556 38.6 15.8889 11 13.5555 0C17.7222 6 26.5556 20 28.5556 28C31.0556 38 34.0556 55 35.0556 61C36.0556 67 38.0556 79 39.0556 90.5C40.0556 102 41.0556 129.5 40.0556 140.5C39.0556 151.5 35.5556 169 33.5556 180.5C31.5556 192 24.0556 213 21.5556 219C19.0556 225 14.0556 234 12.0555 234.5Z" fill="#60DAAC" fill-opacity="0.3"/>
</svg>
