<svg width="75" height="198" viewBox="0 0 75 198" fill="none" xmlns="http://www.w3.org/2000/svg">
<g id="front_adductor_magnus">
<path id="front_adductor_magnus_right_leg" d="M3.56815 197.67V177.67C3.56815 170.17 3.36814 153.17 2.56815 145.17C1.56815 135.17 -0.389174 121.728 0.0681549 119.67C1.06815 115.17 1.56815 106.17 2.56815 99.6697C3.56815 93.1697 5.06815 65.6697 5.56815 61.6697C5.96815 58.4697 7.40148 28.003 8.06815 13.1697C8.37084 6.43469 7.509 -2.5335 9.56815 0.669617C14.0682 7.66957 12.0682 11.6696 18.5682 24.1696C25.415 37.3367 34.0681 35.1697 34.5681 37.6697C35.0681 40.1697 32.5681 73.6697 32.0681 77.1697C31.5681 80.6697 27.5681 110.17 25.0681 116.67C23.0681 121.87 13.9015 161.17 9.56815 180.17L3.56815 197.67Z" fill="#60DAAC" fill-opacity="0.3"/>
<path id="front_adductor_magnus_left_leg" d="M70.0681 197.17L66.0681 182.67C65.5681 180.336 64.3681 174.97 63.5681 172.17C62.5681 168.67 51.0681 120.67 50.0681 115.17C49.0681 109.67 44.5681 84.1696 43.5681 74.6696C42.7681 67.0696 41.9015 49.5029 41.5681 41.6696C41.5681 40.6696 42.0681 37.1384 43.5681 36.6696C51.5681 34.1696 55.5681 26.6696 58.0681 21.1696C60.0681 16.7696 64.5681 5.66962 66.5681 0.669617C66.5681 1.33628 66.6681 4.86962 67.0681 13.6696C67.5681 24.6696 70.9062 58.674 71.0681 61.6696C72.0681 80.1696 74.0681 108.17 74.0681 111.67C74.0681 116.279 72.0681 138.67 71.0681 144.67C70.2681 149.47 70.0681 169.336 70.0681 178.67V197.17Z" fill="#60DAAC" fill-opacity="0.3"/>
</g>
</svg>
