<svg width="33" height="197" viewBox="0 0 33 197" fill="none" xmlns="http://www.w3.org/2000/svg">
<path id="front_adductor_magnus_left_leg" d="M28.5 196.5L24.5 182C24 179.667 22.8 174.3 22 171.5C21 168 9.49999 120 8.49999 114.5C7.49999 109 2.99999 83.5 2 74C1.20001 66.4 0.333336 48.8333 0 41C1.90735e-06 40 0.500029 36.4688 2 36C9.99998 33.4999 14 26 16.5 20.5C18.5 16.1 23 5 25 0C25 0.666667 25.1 4.2 25.5 13C26 24 29.3381 58.0044 29.5 61C30.5 79.5 32.5 107.5 32.5 111C32.5 115.61 30.5 138 29.5 144C28.7 148.8 28.5 168.667 28.5 178V196.5Z" fill="#60DAAC" fill-opacity="0.3"/>
</svg>
