<svg width="59" height="145" viewBox="0 0 59 145" fill="none" xmlns="http://www.w3.org/2000/svg">
<path id="left_bicep" d="M49 140.842C43.1792 147.245 41 143.842 38 141.842C34.5 139.342 27.5 132.842 23.5 128.342C19.5 123.842 16 113.842 12 103.342C8 92.8419 3.5 60.8419 2 54.8419C0.8 50.042 0.166667 29.8419 0 20.3419C0.5 17.3419 3.90001 11.042 3.50001 3.84196C3.00001 -5.15804 16 4.34196 18 5.34196C20 6.34196 37 18.342 41 24.842C44.2 30.042 48.6667 42.6753 50.5 48.342C52.6667 58.6753 57.1 80.042 57.5 82.842C58 86.342 59 112.842 58 121.342C57 129.842 54 135.342 49 140.842Z" fill="#60DAAC" fill-opacity="0.3"/>
</svg>
