<svg width="59" height="145" viewBox="0 0 59 145" fill="none" xmlns="http://www.w3.org/2000/svg">
<path id="right_bicep" d="M20 142.512C12.9398 147.219 11.5 143.512 9.5 141.012C8.5 139.012 4.69387e-06 128.512 0 116.012C-5.86562e-06 100.391 2.33333 81.5118 4 74.0118C4.83333 67.8451 7.2 53.1118 10 43.5118C13.5 31.5118 20.5 22.0118 24.5 18.5118C28.5 15.0118 51 -0.488151 53.5 0.0118408C54.5 0.211841 57.5 6.51184 58 31.0118C58.5 55.5118 54 79.5118 52 86.0118C50 92.5118 44.5 117.739 40.5 123.012C29.5 137.512 23 140.512 20 142.512Z" fill="#60DAAC" fill-opacity="0.3"/>
</svg>
