<svg width="52" height="81" viewBox="0 0 52 81" fill="none" xmlns="http://www.w3.org/2000/svg">
<path id="infraspinatus_left" d="M46.0796 74.5428C40.1251 77.52 34.5796 79.5428 31.5796 80.5428C31.0796 80.8761 26.2796 80.8428 25.0796 80.0428C23.5796 79.0428 23.0796 78.0428 18.5796 72.5428C14.0796 67.0428 10.0796 59.5428 8.57956 57.0428C7.07956 54.5428 2.57957 42.0428 2.07957 41.0428C1.57957 40.0428 -0.420425 35.0428 0.0795751 33.5428C0.579575 32.0428 8.57957 24.0428 11.0796 20.5428C13.5796 17.0428 21.5796 8.54276 23.5796 6.04276C25.5796 3.54276 30.5796 -0.457243 31.5796 0.0427573C32.5796 0.542757 34.5796 3.04276 37.0796 9.04276C39.5796 15.0428 42.0796 29.0428 42.5796 30.5428C43.0796 32.0428 47.0796 51.5428 48.0796 56.5428C48.8498 60.3936 51.5796 69.0428 51.0796 71.5428C50.6083 72.9454 48.0796 73.5428 46.0796 74.5428Z" fill="#60DAAC" fill-opacity="0.3"/>
</svg>
