<svg width="51" height="223" viewBox="0 0 51 223" fill="none" xmlns="http://www.w3.org/2000/svg">
<path id="biceps_femoris_right_leg" d="M42 181.163C43 200.663 53.5 226.163 50 221.663C47.2373 218.111 35.1612 193.173 29.2366 180.663C27.8244 178.163 24.3 170.363 21.5 159.163C18 145.163 12.3947 120.663 12 116.163C9.5 87.6626 12 95.6626 9 54.1626C6.6 20.9626 2 4.66259 0 0.662582C2 0.162582 7.2 -0.537418 12 0.662582C18 2.16258 26.5 4.34119 35 23.1626C43.5991 42.2035 44.5 60.1626 45 72.6626C45.5 85.1626 43.5 123.663 42 131.663C40.5 139.663 41 161.663 42 181.163Z" fill="#60DAAC" fill-opacity="0.3"/>
</svg>
