<svg width="231" height="243" viewBox="0 0 231 243" fill="none" xmlns="http://www.w3.org/2000/svg">
<g id="Hamstrings">
<g id="hamstrings_left_leg">
<path id="biceps_femoris_left_leg" d="M4.5032 182.64V182.64C4.51777 181.14 4.5032 156.14 4.5032 148.64C4.5032 141.14 1.0032 118.64 1.0032 97.14C1.0032 75.64 1.0032 71.64 6.0032 48.14C11.0032 24.64 20.0032 13.14 25.5032 7.63999C31.0032 2.13999 50.0032 -0.360012 50.0032 1.63999C50.0032 3.63999 47.5032 13.14 46.0032 19.14C44.5032 25.14 38.0032 53.64 37.5032 84.64C37.0032 115.64 34.5032 121.64 33.5032 131.64C32.5032 141.64 26.0032 166.64 25.0032 169.64C24.0032 172.64 13.0032 199.64 11.5032 202.64C10.0032 205.64 -0.208842 220.625 0.0032959 219.14C1.0033 212.14 0.109611 208.919 2.5033 201.14C4.5032 194.64 4.5032 186.141 4.5032 182.64Z" fill="#60DAAC" fill-opacity="0.3"/>
<path id="semitendinosus_left_leg" d="M56.5033 227.14C54.1033 220.34 52.8366 207.973 52.5033 202.64C52.8366 201.14 52.4033 195.14 48.0033 183.14C42.5033 168.14 42.5033 159.14 39.0033 138.64C35.5033 118.14 37.5033 91.64 38.0033 71.64C38.5033 51.64 45.0033 22.64 46.0033 18.64C47.0033 14.64 50.0033 0.64 51.0033 0.64C52.0033 0.64 72.5033 -0.36 72.5033 0.14C72.5033 0.64 78.0033 11.14 80.0033 29.14C82.0033 47.14 81.5033 73.64 81.5033 75.64C81.5033 77.64 82.5033 103.14 76.0033 122.14C69.5033 141.14 69.0033 151.14 65.5033 166.64C62.0033 182.14 63.5033 200.64 62.5033 210.14C61.5033 219.64 63.0033 243.64 62.5033 242.64C62.0033 241.64 59.5033 235.64 56.5033 227.14Z" fill="#60DAAC" fill-opacity="0.3"/>
</g>
<g id="hamstrings_right_leg">
<path id="biceps_femoris_right_leg" d="M222.003 185.14C223.003 204.64 233.503 230.14 230.003 225.64C227.241 222.088 215.165 197.151 209.24 184.64C207.828 182.14 204.303 174.34 201.503 163.14C198.003 149.14 192.398 124.64 192.003 120.14C189.503 91.64 192.003 99.64 189.003 58.14C186.603 24.94 182.003 8.64 180.003 4.64C182.003 4.14 187.203 3.44 192.003 4.64C198.003 6.14 206.503 8.3186 215.003 27.14C223.602 46.1809 224.503 64.14 225.003 76.64C225.503 89.14 223.503 127.64 222.003 135.64C220.503 143.64 221.003 165.64 222.003 185.14Z" fill="#60DAAC" fill-opacity="0.3"/>
<path id="semitendinosus_right_leg" d="M164.003 238.14V202.64C164.003 201.14 163.903 196.44 163.503 189.64C163.003 181.14 161.503 171.64 160.503 164.64C159.503 157.64 156.003 146.64 155.503 140.64C155.003 134.64 151.003 124.64 149.503 118.14C148.003 111.64 145.503 87.64 145.003 82.14C144.503 76.64 144.003 53.64 145.003 37.64C145.803 24.84 150.67 7.30668 153.003 0.140015L178.003 1.14004C178.503 0.973372 180.003 2.24004 182.003 8.64004C184.503 16.64 189.003 56.64 189.503 62.64C190.003 68.64 191.003 101.14 191.003 115.14C191.003 129.14 187.003 151.14 186.503 156.64C186.003 162.14 180.503 188.64 177.003 195.14C173.503 201.64 164.003 240.14 164.003 238.14Z" fill="#60DAAC" fill-opacity="0.3"/>
</g>
</g>
</svg>
