<svg width="47" height="239" viewBox="0 0 47 239" fill="none" xmlns="http://www.w3.org/2000/svg">
<path id="semitendinosus_right_leg" d="M19.5774 238V202.5C19.5774 201 19.4774 196.3 19.0774 189.5C18.5774 181 17.0774 171.5 16.0774 164.5C15.0774 157.5 11.5774 146.5 11.0774 140.5C10.5774 134.5 6.57739 124.5 5.07739 118C3.57739 111.5 1.07735 87.5 0.57735 82C0.0773503 76.5 -0.42265 53.5 0.57735 37.5C1.37735 24.7 6.24402 7.16667 8.57735 0L33.5774 1.00002C34.0774 0.833357 35.5774 2.10002 37.5774 8.50002C40.0774 16.5 44.5774 56.5 45.0774 62.5C45.5774 68.5 46.5774 101 46.5774 115C46.5774 129 42.5774 151 42.0774 156.5C41.5774 162 36.0774 188.5 32.5774 195C29.0774 201.5 19.5774 240 19.5774 238Z" fill="#60DAAC" fill-opacity="0.3"/>
</svg>
