<svg width="45" height="243" viewBox="0 0 45 243" fill="none" xmlns="http://www.w3.org/2000/svg">
<path id="semitendinosus_left_leg" d="M19.522 227.14C17.122 220.34 15.8553 207.973 15.522 202.64C15.8553 201.14 15.422 195.14 11.022 183.14C5.52197 168.14 5.52196 159.14 2.02196 138.64C-1.47804 118.14 0.52196 91.64 1.02196 71.64C1.52196 51.64 8.02196 22.64 9.02196 18.64C10.022 14.64 13.022 0.64 14.022 0.64C15.022 0.64 35.522 -0.36 35.522 0.14C35.522 0.64 41.022 11.14 43.022 29.14C45.022 47.14 44.522 73.64 44.522 75.64C44.522 77.64 45.522 103.14 39.022 122.14C32.522 141.14 32.022 151.14 28.522 166.64C25.022 182.14 26.522 200.64 25.522 210.14C24.522 219.64 26.022 243.64 25.522 242.64C25.022 241.64 22.522 235.64 19.522 227.14Z" fill="#60DAAC" fill-opacity="0.3"/>
</svg>
