<svg width="217" height="102" viewBox="0 0 217 102" fill="none" xmlns="http://www.w3.org/2000/svg">
<path id="upper_traps" d="M193.099 79.1111C198.099 82.6111 218.099 94.8877 216.599 95.1111C211.932 95.7778 203.599 97.1111 197.599 100.611C195.885 101.611 194.099 101.611 194.099 101.611C166.432 94.4568 91.3991 84.4944 18.5991 101.88C4.57633 94.5003 -0.818258 96.5285 0.0991285 95.6111C1.09913 94.6111 14.0991 84.1111 16.5991 82.6111C19.0991 81.1111 27.5991 74.6111 37.5991 69.1111C47.5991 63.6111 57.0991 57.1111 64.5991 48.6111C72.0991 40.1111 79.0991 24.1111 80.0991 17.1111C81.3134 8.61111 78.5991 1.24746 79.0991 1.11111C84.5991 -0.388892 102.099 1.11111 107.099 1.11111C112.099 1.11111 133.099 -1.38889 133.099 1.11111C133.099 3.61111 132.099 19.1111 137.599 32.6111C143.099 46.1111 148.599 52.1111 154.099 56.1111C159.599 60.1111 188.099 75.6111 193.099 79.1111Z" fill="#60DAAC" fill-opacity="0.3"/>
</svg>
