<svg width="49" height="128" viewBox="0 0 49 128" fill="none" xmlns="http://www.w3.org/2000/svg">
<path id="right_side_obliques" d="M24.0958 123.584C42.4958 137.584 48.0958 110.751 48.5958 95.5843C48.7908 92.0843 46.5958 76.0843 47.0958 73.0843C47.5958 70.0843 43.0958 47.0843 32.5958 36.5843C22.0958 26.0843 21.0958 13.5843 20.5958 11.5843C20.0958 9.58431 4.59581 -5.41569 5.09581 2.08431C5.5958 9.58431 7.09581 30.0843 4.59581 40.0843C2.09581 50.0843 1.09581 64.5843 1.59581 72.0843C2.09581 79.5843 4.12579 88.7363 3.5958 89.5843C1.09582 93.5843 -0.404202 102.084 0.0957985 104.584C0.595798 107.084 1.09581 106.084 24.0958 123.584Z" fill="#60DAAC" fill-opacity="0.3"/>
</svg>
