<svg width="120" height="118" viewBox="0 0 120 118" fill="none" xmlns="http://www.w3.org/2000/svg">
<path id="left_pec" d="M84.5 112.892C73.3 117.692 52.1667 117.559 43 116.892C42.5 116.725 34.7593 114.847 31 113.392C15.5 107.392 13.134 103.784 11.5 101.892C2 90.8919 1 82.3919 0 75.8919L0.5 33.3918C0.5 30.3918 1 15.7919 9 9.39186C19 1.39186 23.5 1.89189 27.5 1.39187C31.5913 0.880453 52.8465 -0.736877 61.5 0.391855C76.0143 2.28505 83 10.8085 85.5 12.8919C87.57 14.6169 97.5 26.8919 101 30.8919C106.825 37.5491 119.654 56.3919 119 64.8919C117.894 79.2716 110.333 91.8919 106.5 96.3919C103.833 99.8919 95.7 108.092 84.5 112.892Z" fill="#60DAAC" fill-opacity="0.3"/>
</svg>
