<svg width="247" height="119" viewBox="0 0 247 119" fill="none" xmlns="http://www.w3.org/2000/svg">
<g id="Pecs">
<path id="left_pec" d="M211.644 113.034C200.444 117.834 179.311 117.7 170.144 117.034C169.644 116.867 161.903 114.989 158.144 113.534C142.644 107.534 140.278 103.926 138.644 102.034C129.144 91.0338 128.144 82.5338 127.144 76.0338L127.644 33.5338C127.644 30.5338 128.144 15.9338 136.144 9.53381C146.144 1.53381 150.644 2.03384 154.644 1.53383C158.735 1.02241 179.991 -0.594925 188.644 0.533807C203.158 2.427 210.144 10.9505 212.644 13.0338C214.714 14.7588 224.644 27.0338 228.144 31.0338C233.969 37.691 246.798 56.5338 246.144 65.0338C245.038 79.4135 237.477 92.0338 233.644 96.5338C230.977 100.034 222.844 108.234 211.644 113.034Z" fill="#60DAAC" fill-opacity="0.3"/>
<path id="right_pec" d="M82.6441 115.034C77.0441 117.034 60.9774 117.867 53.6441 118.034C38.1441 117.034 35.1441 115.034 25.1441 109.034C17.1441 104.234 9.81077 92.7005 7.14411 87.5338C1.20863 76.0338 -3.59274 64.5338 3.64411 53.5338C16.1441 34.5338 18.6441 32.5338 29.1441 19.0338C39.6441 5.5338 43.6441 6.5338 48.6441 3.0338C52.6441 0.233802 68.3108 -0.132865 75.6441 0.033802C82.4775 0.200469 97.6441 1.4338 103.644 5.0338C111.144 9.5338 117.644 25.0338 119.144 34.0338C120.644 43.0338 119.644 73.0338 119.144 79.5338C118.644 86.0338 113.144 100.534 105.144 105.534C97.1441 110.534 89.6441 112.534 82.6441 115.034Z" fill="#60DAAC" fill-opacity="0.3"/>
</g>
</svg>
