<svg width="120" height="119" viewBox="0 0 120 119" fill="none" xmlns="http://www.w3.org/2000/svg">
<path id="right_pec" d="M82.6441 115.034C77.0441 117.034 60.9774 117.867 53.6441 118.034C38.1441 117.034 35.1441 115.034 25.1441 109.034C17.1441 104.234 9.81077 92.7005 7.14411 87.5338C1.20863 76.0338 -3.59274 64.5338 3.64411 53.5338C16.1441 34.5338 18.6441 32.5338 29.1441 19.0338C39.6441 5.5338 43.6441 6.5338 48.6441 3.0338C52.6441 0.233802 68.3108 -0.132865 75.6441 0.033802C82.4775 0.200469 97.6441 1.4338 103.644 5.0338C111.144 9.5338 117.644 25.0338 119.144 34.0338C120.644 43.0338 119.644 73.0338 119.144 79.5338C118.644 86.0338 113.144 100.534 105.144 105.534C97.1441 110.534 89.6441 112.534 82.6441 115.034Z" fill="#60DAAC" fill-opacity="0.3"/>
</svg>
