<svg width="51" height="146" viewBox="0 0 51 146" fill="none" xmlns="http://www.w3.org/2000/svg">
<path id="inner_forearms_right_arm" d="M0.0718751 143.719C-0.328125 142.519 1.07187 139.719 1.07188 138.219C1.07188 135.719 1.57187 126.719 1.57187 123.719C1.57187 120.719 1.07188 110.719 2.07187 104.719C3.07187 98.7188 8.57187 84.2188 10.0719 79.2188C11.5719 74.2188 15.5719 60.7188 17.5719 55.2188C19.5719 49.7188 22.0719 39.2188 22.5719 26.2188C23.0719 13.2188 34.0719 5.71875 35.5719 4.21875C37.0719 2.71875 48.0719 -2.28125 49.0719 1.21875C50.0719 4.71875 50.0719 12.2188 50.0719 21.7188C50.0719 31.2188 47.0719 41.7188 46.5719 46.7188C46.0719 51.7188 37.0719 74.7188 30.5719 83.2188C24.0719 91.7188 15.0719 113.719 11.5719 120.219C7.95346 126.939 6.07187 145.719 5.57187 145.719C5.07187 145.719 0.571875 145.219 0.0718751 143.719Z" fill="#60DAAC" fill-opacity="0.3"/>
</svg>
