<svg width="48" height="180" viewBox="0 0 48 180" fill="none" xmlns="http://www.w3.org/2000/svg">
<path id="middle_forearms_left_arm" d="M26.8942 177C26.4942 175.8 26.3942 169.833 26.3942 167C26.1261 158.5 26.8942 160.5 23.8942 147.5C20.8942 134.5 18.3942 133.5 16.8942 128.5C15.3942 123.5 9.89421 106 8.89421 103C7.89421 100 5.89421 95.5 1.89421 71C-2.10579 46.5 1.39413 35 1.89421 32.5C3.56433 24.1507 10.8942 7.5 12.8942 3C14.8942 -1.5 23.8942 0 24.8942 1.5C25.8942 3 35.3942 21.5 37.3942 34C39.3942 46.5 38.8942 56 38.8942 66C38.8942 76 36.3942 86 34.3942 95.5C32.3942 105 32.8942 119.5 34.3942 126.5C35.8942 133.5 40.3942 158.5 41.8942 164.5C43.3942 170.5 47.8942 181.5 46.8942 179.5C45.8942 177.5 40.3942 175 35.3942 174.5C30.3942 174 27.3942 178.5 26.8942 177Z" fill="#60DAAC" fill-opacity="0.3"/>
</svg>
