<svg width="43" height="182" viewBox="0 0 43 182" fill="none" xmlns="http://www.w3.org/2000/svg">
<path id="middle_forearms_right_arm" d="M0.0641999 181.015C-0.335785 176.615 1.23086 168.015 2.06419 164.015C2.36375 162.515 2.06419 161.515 3.5642 152.015C5.0642 142.515 7.5642 125.515 7.5642 115.015C7.5642 104.515 4.5642 89.5146 3.5642 82.0146C2.5642 74.5146 1.0642 72.5146 2.0642 56.5146C3.0642 40.5146 9.0642 26.0146 12.5642 19.0146C16.0642 12.0146 21.6551 -0.485484 22.0642 0.0145569C31.0636 11.0151 33.5642 15.5146 37.5642 28.0146C41.5642 40.5146 42.0642 66.0146 42.0642 68.5146C42.0642 71.0146 39.5642 93.0146 35.5642 101.515C31.5642 110.015 27.5642 127.515 23.5642 138.015C19.5642 148.515 16.5642 159.015 14.0642 165.015C11.5642 171.015 12.0642 182.015 11.0642 181.515C8.82814 180.397 0.109653 181.515 0.0641999 181.015Z" fill="#60DAAC" fill-opacity="0.3"/>
</svg>
