<svg width="16" height="127" viewBox="0 0 16 127" fill="none" xmlns="http://www.w3.org/2000/svg">
<path id="outside_forearms_right_arm" d="M0.0273092 126.242C0.427309 125.442 1.86064 113.909 2.52731 108.242C2.69398 105.742 3.22731 99.1419 4.02731 92.7419C5.02731 84.7419 4.52731 60.7419 4.52731 57.2419C4.52731 53.7419 5.52731 33.2418 5.52731 24.2418C5.52731 15.2418 10.0273 -2.25816 10.0273 0.241844C10.0273 2.74184 11.5273 21.2419 12.0273 24.2418C12.7852 28.7889 15.5273 46.7419 15.5273 51.2418C15.5273 60.7419 14.5273 78.7418 14.0273 82.7418C13.5273 86.7418 9.52731 109.742 9.02731 112.742C8.83385 113.903 9.02731 122.642 8.52731 122.742C6.02731 123.242 -0.472691 127.242 0.0273092 126.242Z" fill="#60DAAC" fill-opacity="0.3"/>
</svg>
