<svg width="113" height="145" viewBox="0 0 113 145" fill="none" xmlns="http://www.w3.org/2000/svg">
<g id="Abs">
<g id="bottom_two_abs">
<path d="M16 143.542C11.2 142.742 7.33333 132.542 6 127.542V117.042C6.33333 113.042 7.5 104.442 9.5 102.042C11.5 99.6418 20.3333 98.3752 24.5 98.0418C30 97.5418 42 96.5418 46 96.5418C50 96.5418 53.3333 102.209 54.5 105.042C55 111.542 55.8 125.842 55 131.042C54.2 136.242 49 141.042 44.5 143.042C40.5 144.542 20.8 144.342 16 143.542Z" fill="#60DAAC" fill-opacity="0.3"/>
<path d="M71 143.042C67.4 143.042 62.8333 138.042 61 135.542C60.227 134.488 60.2 108.942 61 104.542C61.8 100.142 64.5 97.5418 66 97.0418C68 96.5418 95.5 97.1418 99.5 99.5418C104.5 102.542 104.5 104.542 106 108.042C107.538 111.631 108.5 120.542 107.5 127.042C106.5 133.542 102 138.042 98.5 141.042C95 144.042 75.5 143.042 71 143.042Z" fill="#60DAAC" fill-opacity="0.3"/>
</g>
<path id="middle_right_ab" d="M68 95.5418C62.7846 95.5418 60.8333 87.5418 60.5 83.5418C60.6667 76.3751 61 61.7418 61 60.5418C61 59.3418 62.7337 49.8085 67 49.5418C75 49.0417 84.5 50.0418 95.5 53.0418C106.5 56.0418 106.578 60.7759 107.5 63.5418C108.5 66.5418 110.429 74.5418 110 80.5418C109.893 82.0418 106.069 98.828 102.5 99.5418C99.5 100.142 85 95.5418 68 95.5418Z" fill="#60DAAC" fill-opacity="0.3"/>
<path id="middle_left_ab" d="M50 95.5419C48.577 96.0162 27 97.9585 14 99.0418C8.24486 99.5214 4.495 88.6863 4.03559 83.0419L3 74.5419C3 70.5419 4.2 61.3419 9 56.5419C15 50.5419 34.9234 50.0514 43 49.0419C51 48.0418 53.4299 54.8316 54 56.5419C54.5 58.0418 55 81.0419 55 84.5419C55 88.0419 51.5 95.0418 50 95.5419Z" fill="#60DAAC" fill-opacity="0.3"/>
<path id="top_left_ab" d="M3 49.0418C1 47.0418 0.166667 41.2085 0 38.5418C0 31.5418 1.5 20.5418 2 17.0418C2.64031 12.5597 11.5476 10.1172 15 9.54184C18 9.04184 27.8333 5.54184 32.5 3.54184C34.5 2.20851 39.5 -0.358162 43.5 0.0418383C48.5 0.541838 50.5 5.54184 52.5 8.54184C54.1 10.9418 54.1667 27.5418 54 35.5418C54 38.3752 53.4 44.5418 51 46.5418C48 49.0418 31.5 50.5418 28.5 50.5418C25.5 50.5418 12 54.5418 9.5 54.5418C7 54.5418 5.5 51.5418 3 49.0418Z" fill="#60DAAC" fill-opacity="0.3"/>
<path id="top_right_ab" d="M69 48.5419C63.4 46.9419 61.3333 40.8752 61 38.0419C60.8333 35.8752 60.5 30.4419 60.5 26.0419C60.5 20.5419 59.5 17.5419 61.5 9.04191C63.5 0.541905 72.5 1.04189 74 1.04184C76 1.04178 88.5 8.54191 98.5 10.5419C108.5 12.5419 108.5 15.0419 109.5 16.5419C110.5 18.0419 113 23.5419 113 34.0419C113 44.5419 109.5 51.0419 107 54.5419C104.5 58.0419 101.5 55.0419 89 51.5419C76.5 48.0419 76 50.5419 69 48.5419Z" fill="#60DAAC" fill-opacity="0.3"/>
</g>
</svg>
