<svg width="102" height="48" viewBox="0 0 102 48" fill="none" xmlns="http://www.w3.org/2000/svg">
<g id="bottom_two_abs">
<path d="M10 47C5.2 46.2 1.33333 36 0 31V20.5C0.333333 16.5 1.5 7.9 3.5 5.5C5.5 3.1 14.3333 1.83333 18.5 1.5C24 1 36 0 40 0C44 0 47.3333 5.66667 48.5 8.5C49 15 49.8 29.3 49 34.5C48.2 39.7 43 44.5 38.5 46.5C34.5 48 14.8 47.8 10 47Z" fill="#60DAAC" fill-opacity="0.3"/>
<path d="M65 46.5C61.4 46.5 56.8333 41.5 55 39C54.227 37.9459 54.2 12.4 55 8C55.8 3.6 58.5 1 60 0.5C62 -1.28746e-05 89.5 0.6 93.5 3C98.5 6 98.5 8 100 11.5C101.538 15.0894 102.5 24 101.5 30.5C100.5 37 96 41.5 92.5 44.5C89 47.5 69.5 46.5 65 46.5Z" fill="#60DAAC" fill-opacity="0.3"/>
</g>
</svg>
