<svg width="94" height="107" viewBox="0 0 94 107" fill="none" xmlns="http://www.w3.org/2000/svg">
<path id="lower_abs" d="M74.799 103.5L44.799 106.5L16.799 106C16.799 105 15.9716 102.263 14.299 98.5C12.299 94 10.299 86.5 6.79904 73C3.29904 59.5 2.92542 49.0898 1.29904 41.5C-0.20096 34.5 -0.200962 15 0.299038 9C0.699038 4.2 2.4657 1.66666 3.29904 0.999997C12.6324 0.833331 32.299 0.499998 36.299 0.499998C41.299 0.499998 44.799 13.5 45.299 12.5C45.799 11.5 49.9657 2.5 52.299 0.499998L82.299 0C87.799 2.5332e-06 93.299 0.5 93.299 19.5C93.299 43.5052 92.799 32.5 89.299 55.5C86.4548 74.1909 78.799 95.3333 74.799 103.5Z" fill="#60DAAC" fill-opacity="0.3"/>
</svg>
