<svg width="53" height="56" viewBox="0 0 53 56" fill="none" xmlns="http://www.w3.org/2000/svg">
<path id="top_right_ab" d="M8.75 47.5056C3.15 45.9056 1.08333 39.8389 0.75 37.0056C0.583333 34.8389 0.25 29.4056 0.25 25.0056C0.25 19.5056 -0.75 16.5056 1.25 8.00559C3.25 -0.494411 12.25 0.00556946 13.75 0.00552368C15.75 0.00546265 28.25 7.50559 38.25 9.50559C48.25 11.5056 48.25 14.0056 49.25 15.5056C50.25 17.0056 52.75 22.5056 52.75 33.0056C52.75 43.5056 49.25 50.0056 46.75 53.5056C44.25 57.0056 41.25 54.0056 28.75 50.5056C16.25 47.0056 15.75 49.5056 8.75 47.5056Z" fill="#60DAAC" fill-opacity="0.3"/>
</svg>
