<svg width="55" height="55" viewBox="0 0 55 55" fill="none" xmlns="http://www.w3.org/2000/svg">
<path id="top_left_ab" d="M3 49.0418C1 47.0418 0.166667 41.2085 0 38.5418C0 31.5418 1.5 20.5418 2 17.0418C2.64031 12.5597 11.5476 10.1172 15 9.54184C18 9.04184 27.8333 5.54184 32.5 3.54184C34.5 2.20851 39.5 -0.358162 43.5 0.0418383C48.5 0.541838 50.5 5.54184 52.5 8.54184C54.1 10.9418 54.1667 27.5418 54 35.5418C54 38.3752 53.4 44.5418 51 46.5418C48 49.0418 31.5 50.5418 28.5 50.5418C25.5 50.5418 12 54.5418 9.5 54.5418C7 54.5418 5.5 51.5418 3 49.0418Z" fill="#60DAAC" fill-opacity="0.3"/>
</svg>
