<svg width="244" height="38" viewBox="0 0 244 38" fill="none" xmlns="http://www.w3.org/2000/svg">
<g id="Teres_major">
<path id="teres_major_right" d="M214 36.5C207.6 37.3 199.667 36.8333 196.5 36.5C196 36 195.5 36.5 200 31.5C203.6 27.5 208.5 20.8333 210.5 18C212.167 15.3333 213.5 14.7 215.5 9.49999C217.5 4.29999 226 4.5 229 4.49999C234 4.5 242.6 3.79998 243 4.99998C243.5 6.49998 242.5 14 240 20C237.5 26 228.5 31.5 227 32.5C225.5 33.5 222 35.5 214 36.5Z" fill="#60DAAC" fill-opacity="0.3"/>
<path id="teres_major_left" d="M16.5 32.5C6.5 26.9 3.66667 20.1667 3.5 17.5C3.34696 16.5 0 5.5 0 5C0 4.5 7 0 8 0C9 0 28.5 6 29 7C29.5 8 34.5 16 38 22C41.5091 28.0155 51 36.5 50.5 37C50 37.5 43 37.5 37 37.5C31 37.5 29 39.5 16.5 32.5Z" fill="#60DAAC" fill-opacity="0.3"/>
</g>
</svg>
