<svg width="268" height="168" viewBox="0 0 268 168" fill="none" xmlns="http://www.w3.org/2000/svg">
<g id="Calfs">
<g id="right_calf">
<path id="inside_calf_right_leg" d="M191.776 166.111C181.776 158.911 178.276 146.111 176.276 140.611C175.701 138.111 172.276 131.111 172.276 110.111C172.276 89.1113 176.276 72.6113 177.776 67.1113C179.276 61.6113 190.276 20.6113 192.276 12.6113C194.276 4.61132 198.776 3.11132 201.276 5.61132C203.776 8.11132 207.276 14.6113 213.276 31.6113C219.276 48.6113 222.276 75.1113 222.276 102.111C222.276 123.711 217.609 140.778 215.276 146.611C211.609 156.111 201.776 173.311 191.776 166.111Z" fill="#60DAAC" fill-opacity="0.3"/>
<path id="outside_calf_right_leg" d="M228.776 157.611C223.176 150.411 220.776 140.278 220.276 136.111C220.136 135.111 220.276 130.611 221.276 122.611C222.276 114.611 221.776 103.111 221.776 99.1113C221.776 95.1113 221.389 76.6095 221.276 73.1113C220.776 57.6113 219.276 57.1113 219.276 46.1113C219.276 28.1113 224.776 11.6113 225.276 10.1113C225.776 8.6113 230.276 -3.3887 236.276 1.1113C242.276 5.6113 248.776 18.1113 253.776 30.6113C258.776 43.1113 262.776 58.1113 265.776 69.6113C268.776 81.1113 268.776 117.611 263.776 133.611C258.776 149.611 248.276 161.611 246.276 162.111C244.276 162.611 235.776 166.611 228.776 157.611Z" fill="#60DAAC" fill-opacity="0.3"/>
</g>
<g id="left_calf">
<path id="inside_calf_left_leg" d="M60.2761 161.111C53.0761 153.911 49.6094 142.778 48.7761 138.111C48.3461 136.111 46.2761 129.611 45.7761 120.611C45.2761 111.611 45.7761 107.611 45.7761 94.6113C45.7761 81.6113 48.7761 58.1113 49.2761 54.6113C49.7761 51.1113 54.7761 28.1113 58.2761 19.6113C61.7761 11.1113 65.7761 4.11127 70.2761 4.11127C74.7761 4.11127 74.9849 13.1753 77.2761 22.1113C82.2761 41.6113 83.7761 40.6113 86.7761 50.6113C87.9761 54.6113 94.2761 83.6113 94.2761 99.6113C94.2761 115.611 93.2761 124.611 90.7761 138.111C88.2761 151.611 77.7761 162.111 77.2761 162.611C76.7761 163.111 69.2761 170.111 60.2761 161.111Z" fill="#60DAAC" fill-opacity="0.3"/>
<path id="outside_calf_left_leg" d="M21.7761 159.611C16.1761 156.011 8.77614 145.778 5.77614 141.111C2.77616 135.611 2.27614 127.611 1.77614 124.611C1.27614 121.611 -0.723858 107.611 0.276142 93.6113C1.27614 79.6113 3.77614 72.1113 5.77614 61.6113C7.77614 51.1113 11.7761 43.6113 14.2761 34.1113C16.7761 24.6113 26.7761 10.1113 28.2761 7.61131C29.7761 5.11131 37.2761 -0.888685 38.7761 0.111315C40.2761 1.11131 44.2761 12.1113 46.2761 19.6113C48.2761 27.1113 49.2761 48.6113 49.2761 50.6113C49.2761 52.6113 45.7761 82.6113 45.7761 85.6113C45.7761 88.6113 44.7761 114.111 46.7761 126.111C48.7761 138.111 47.2761 139.611 46.7761 141.111C46.2761 142.611 44.2761 151.611 38.2761 158.111C32.2761 164.611 28.7761 164.111 21.7761 159.611Z" fill="#60DAAC" fill-opacity="0.3"/>
</g>
</g>
</svg>
