<svg width="49" height="162" viewBox="0 0 49 162" fill="none" xmlns="http://www.w3.org/2000/svg">
<path id="inside_calf_left_leg" d="M14.7222 157C7.52222 149.8 4.05556 138.667 3.22222 134C2.79221 132 0.722222 125.5 0.222222 116.5C-0.277778 107.5 0.222222 103.5 0.222222 90.5C0.222222 77.5 3.22222 54 3.72222 50.5C4.22222 47 9.22222 24 12.7222 15.5C16.2222 7 20.2222 -2.06567e-06 24.7222 0C29.2222 2.06567e-06 29.431 9.06407 31.7222 18C36.7222 37.5001 38.2222 36.5001 41.2222 46.5C42.4222 50.5 48.7222 79.5 48.7222 95.5C48.7222 111.5 47.7222 120.5 45.2222 134C42.7222 147.5 32.2222 158 31.7222 158.5C31.2222 159 23.7222 166 14.7222 157Z" fill="#60DAAC" fill-opacity="0.3"/>
</svg>
