<svg width="49" height="164" viewBox="0 0 49 164" fill="none" xmlns="http://www.w3.org/2000/svg">
<path id="outside_calf_right_leg" d="M9.5 157.504C3.9 150.304 1.5 140.171 1 136.004C0.86031 135.004 1 130.504 2 122.504C3 114.504 2.5 103.004 2.5 99.0039C2.5 95.0039 2.11284 76.5021 2 73.0039C1.5 57.5039 0 57.0039 0 46.0039C0 28.0039 5.5 11.5039 6 10.0039C6.5 8.50388 11 -3.49612 17 1.00388C23 5.50388 29.5 18.0039 34.5 30.5039C39.5 43.0039 43.5 58.0039 46.5 69.5039C49.5 81.0039 49.5 117.504 44.5 133.504C39.5 149.504 29 161.504 27 162.004C25 162.504 16.5 166.504 9.5 157.504Z" fill="#60DAAC" fill-opacity="0.3"/>
</svg>
