<svg width="50" height="163" viewBox="0 0 50 163" fill="none" xmlns="http://www.w3.org/2000/svg">
<path id="outside_calf_left_leg" d="M21.7761 159.611C16.1761 156.011 8.77614 145.778 5.77614 141.111C2.77616 135.611 2.27614 127.611 1.77614 124.611C1.27614 121.611 -0.723858 107.611 0.276142 93.6113C1.27614 79.6113 3.77614 72.1113 5.77614 61.6113C7.77614 51.1113 11.7761 43.6113 14.2761 34.1113C16.7761 24.6113 26.7761 10.1113 28.2761 7.61131C29.7761 5.11131 37.2761 -0.888685 38.7761 0.111315C40.2761 1.11131 44.2761 12.1113 46.2761 19.6113C48.2761 27.1113 49.2761 48.6113 49.2761 50.6113C49.2761 52.6113 45.7761 82.6113 45.7761 85.6113C45.7761 88.6113 44.7761 114.111 46.7761 126.111C48.7761 138.111 47.2761 139.611 46.7761 141.111C46.2761 142.611 44.2761 151.611 38.2761 158.111C32.2761 164.611 28.7761 164.111 21.7761 159.611Z" fill="#60DAAC" fill-opacity="0.3"/>
</svg>
