<svg width="37" height="180" viewBox="0 0 37 180" fill="none" xmlns="http://www.w3.org/2000/svg">
<path id="back_adductor_magnus_right_leg" d="M31.1111 179.315L24.6111 150.815C23.2778 145.148 20.4111 133.215 19.6111 130.815C18.6111 127.815 12.6111 104.315 9.6111 93.3149C6.6111 82.3149 3.6111 63.8149 1.11111 49.3149C-1.38888 34.8149 1.11111 20.8149 1.11111 14.8149C1.11111 8.81487 1.31684 -1.9793 3.61111 0.314868C17.1114 13.8146 36.9315 16.5103 36.1111 18.315C33.6111 23.815 31.1111 40.315 30.1111 44.8149C29.1843 48.9851 28.1111 74.8149 28.1111 82.8149C28.1111 90.8149 30.1111 115.815 31.1111 121.815C31.9111 126.615 32.4444 143.815 32.6111 151.815L31.1111 179.315Z" fill="#60DAAC" fill-opacity="0.3"/>
</svg>
