<svg width="35" height="179" viewBox="0 0 35 179" fill="none" xmlns="http://www.w3.org/2000/svg">
<path id="back_adductor_magnus_left_leg" d="M4.51172 178.654V152.154C4.41738 147.154 4.13673 137.154 4.51172 134.654C6.01169 124.654 7.01176 112.154 7.51176 106.154C8.01176 100.154 8.51176 98.1535 8.51176 79.1535C8.51176 60.1535 6.01172 46.6536 5.01172 38.1535C4.01172 29.6535 -1.72024 16.8403 0.511723 16.1535C7.01172 14.1535 11.5117 12.1536 18.0117 9.65355C28.204 5.73343 31.5117 -2.34643 33.0117 0.653574C34.5117 3.65357 35.5462 36.6536 34.5117 46.6536C33.0117 61.1536 26.0117 94.6535 24.5117 100.654C23.3117 105.454 14.6784 137.32 10.5117 152.654L4.51172 178.654Z" fill="#60DAAC" fill-opacity="0.3"/>
</svg>
